<svg width="36" height="35" viewBox="0 0 36 35" fill="none" xmlns="http://www.w3.org/2000/svg">
<circle cx="18" cy="17.5" r="17.5" fill="#5865F2"/>
<path d="M25.2774 10.3264C23.9159 9.70165 22.4791 9.25618 21.0029 9.0011C20.9895 8.9986 20.9756 9.00039 20.9633 9.00621C20.951 9.01204 20.9408 9.02161 20.9342 9.03355C20.7496 9.3618 20.5451 9.78993 20.4019 10.1264C18.7878 9.88483 17.182 9.88483 15.601 10.1264C15.4579 9.78241 15.2459 9.3618 15.0605 9.03355C15.0536 9.02188 15.0434 9.01255 15.0312 9.00677C15.0189 9.001 15.0052 8.99905 14.9918 9.00119C13.5155 9.25568 12.0786 9.70111 10.7173 10.3263C10.7056 10.3312 10.6958 10.3397 10.6892 10.3505C7.96673 14.4162 7.22088 18.3818 7.5868 22.2984C7.58784 22.308 7.59079 22.3173 7.59548 22.3257C7.60017 22.3341 7.6065 22.3415 7.6141 22.3475C9.4103 23.6661 11.1502 24.4665 12.8579 24.9971C12.8712 25.001 12.8853 25.0009 12.8985 24.9965C12.9117 24.9922 12.9232 24.984 12.9316 24.9729C13.3355 24.4216 13.6955 23.8401 14.0043 23.2287C14.0086 23.2204 14.011 23.2112 14.0114 23.2018C14.0119 23.1924 14.0103 23.1831 14.0069 23.1743C14.0034 23.1656 13.9982 23.1577 13.9915 23.1511C13.9847 23.1446 13.9767 23.1395 13.9679 23.1363C13.3967 22.9197 12.8529 22.6557 12.3297 22.3559C12.3202 22.3503 12.3122 22.3424 12.3064 22.333C12.3006 22.3235 12.2973 22.3128 12.2966 22.3018C12.2959 22.2907 12.298 22.2797 12.3026 22.2697C12.3073 22.2596 12.3143 22.2509 12.3231 22.2442C12.4332 22.1617 12.5433 22.076 12.6484 21.9893C12.6577 21.9816 12.6691 21.9767 12.681 21.975C12.693 21.9734 12.7053 21.9752 12.7163 21.9801C16.1531 23.5486 19.8738 23.5486 23.27 21.9801C23.2811 21.9748 23.2934 21.9728 23.3056 21.9743C23.3177 21.9758 23.3292 21.9807 23.3387 21.9884C23.4439 22.075 23.554 22.1617 23.6649 22.2442C23.6737 22.2508 23.6808 22.2595 23.6855 22.2695C23.6902 22.2795 23.6923 22.2905 23.6917 22.3015C23.6912 22.3125 23.6879 22.3232 23.6822 22.3327C23.6765 22.3422 23.6686 22.3501 23.6591 22.3558C23.1358 22.6613 22.5875 22.9221 22.0203 23.1354C22.0114 23.1388 22.0034 23.144 21.9968 23.1506C21.9901 23.1573 21.9849 23.1653 21.9816 23.1741C21.9782 23.1829 21.9767 23.1923 21.9773 23.2018C21.9778 23.2112 21.9803 23.2204 21.9846 23.2287C22.3 23.8392 22.6601 24.4207 23.0565 24.9721C23.0646 24.9834 23.0761 24.992 23.0893 24.9965C23.1025 25.001 23.1168 25.0012 23.1302 24.9971C24.8461 24.4664 26.586 23.666 28.3822 22.3475C28.3899 22.3418 28.3964 22.3346 28.4011 22.3263C28.4058 22.3179 28.4087 22.3087 28.4096 22.2992C28.8474 17.7712 27.6762 13.838 25.3047 10.3513C25.2988 10.3399 25.2891 10.3312 25.2774 10.3264ZM14.5175 19.9136C13.4828 19.9136 12.6302 18.964 12.6302 17.7979C12.6302 16.6318 13.4663 15.6822 14.5176 15.6822C15.577 15.6822 16.4213 16.6401 16.4048 17.7979C16.4048 18.964 15.5687 19.9136 14.5175 19.9136ZM21.4954 19.9136C20.4607 19.9136 19.6081 18.964 19.6081 17.7979C19.6081 16.6318 20.4441 15.6822 21.4954 15.6822C22.5549 15.6822 23.3992 16.6401 23.3826 17.7979C23.3826 18.964 22.5549 19.9136 21.4954 19.9136Z" fill="white"/>
</svg>
