<svg width="30" height="24" viewBox="0 0 30 24" fill="none" xmlns="http://www.w3.org/2000/svg">
<path d="M25.3962 1.98953C23.4513 1.05248 21.3987 0.384274 19.2899 0.00164913C19.2707 -0.00210179 19.2509 0.000583264 19.2333 0.00932198C19.2157 0.0180607 19.2011 0.032408 19.1917 0.0503228C18.928 0.5427 18.6359 1.1849 18.4314 1.68961C16.1255 1.32725 13.8314 1.32725 11.5729 1.68961C11.3684 1.17362 11.0656 0.5427 10.8007 0.0503228C10.7909 0.0328163 10.7763 0.01882 10.7588 0.0101606C10.7413 0.00150121 10.7217 -0.00141902 10.7026 0.0017805C8.59359 0.383516 6.54086 1.05166 4.59612 1.98939C4.57949 1.99686 4.56547 2.00955 4.556 2.02573C0.666754 8.12423 -0.398744 14.0728 0.124005 19.9476C0.125483 19.962 0.129696 19.9759 0.136395 19.9885C0.143094 20.0012 0.152143 20.0123 0.163005 20.0212C2.729 21.9991 5.21462 23.1998 7.65412 23.9956C7.67309 24.0016 7.69333 24.0013 7.71214 23.9948C7.73095 23.9883 7.74743 23.976 7.75937 23.9594C8.33637 23.1324 8.85074 22.2602 9.29187 21.3431C9.29793 21.3306 9.30139 21.3168 9.30202 21.3027C9.30265 21.2887 9.30044 21.2746 9.29553 21.2615C9.29062 21.2484 9.28312 21.2366 9.27352 21.2267C9.26393 21.2169 9.25246 21.2093 9.23987 21.2044C8.42387 20.8796 7.64699 20.4835 6.89962 20.0338C6.88599 20.0254 6.87454 20.0136 6.86629 19.9994C6.85803 19.9853 6.85322 19.9692 6.85228 19.9527C6.85134 19.9361 6.8543 19.9196 6.8609 19.9045C6.8675 19.8894 6.87754 19.8763 6.89012 19.8662C7.04737 19.7425 7.20475 19.6139 7.35487 19.4839C7.36821 19.4724 7.38436 19.465 7.4015 19.4625C7.41864 19.4601 7.43608 19.4627 7.45187 19.4702C12.3616 21.8229 17.6769 21.8229 22.5286 19.4702C22.5444 19.4623 22.562 19.4593 22.5794 19.4615C22.5968 19.4637 22.6132 19.471 22.6267 19.4826C22.777 19.6125 22.9342 19.7425 23.0927 19.8662C23.1053 19.8762 23.1154 19.8892 23.1221 19.9042C23.1288 19.9192 23.1319 19.9357 23.1311 19.9522C23.1302 19.9688 23.1256 19.9849 23.1174 19.999C23.1093 20.0132 23.098 20.0251 23.0845 20.0336C22.3368 20.492 21.5536 20.8832 20.7432 21.2031C20.7306 21.2082 20.7192 21.216 20.7097 21.226C20.7002 21.236 20.6928 21.248 20.688 21.2612C20.6832 21.2744 20.6811 21.2885 20.6818 21.3026C20.6826 21.3168 20.6862 21.3305 20.6924 21.3431C21.1429 22.2589 21.6572 23.131 22.2236 23.9581C22.2352 23.9752 22.2516 23.988 22.2705 23.9947C22.2893 24.0014 22.3098 24.0018 22.3288 23.9956C24.7801 23.1997 27.2657 21.999 29.8317 20.0212C29.8428 20.0127 29.852 20.0019 29.8587 19.9894C29.8655 19.9769 29.8696 19.9631 29.8708 19.9488C30.4963 13.1568 28.8231 7.25703 25.4352 2.02692C25.4269 2.00992 25.4131 1.99675 25.3962 1.98953ZM10.025 16.3704C8.54687 16.3704 7.32887 14.946 7.32887 13.1968C7.32887 11.4477 8.52324 10.0233 10.0251 10.0233C11.5386 10.0233 12.7447 11.4601 12.7211 13.1969C12.7211 14.946 11.5267 16.3704 10.025 16.3704ZM19.9935 16.3704C18.5154 16.3704 17.2974 14.946 17.2974 13.1968C17.2974 11.4477 18.4916 10.0233 19.9935 10.0233C21.507 10.0233 22.7131 11.4601 22.6895 13.1969C22.6895 14.946 21.507 16.3704 19.9935 16.3704Z" fill="#5865F2"/>
</svg>
