<svg width="299" height="300" viewBox="0 0 299 300" fill="none" xmlns="http://www.w3.org/2000/svg">
<path d="M12.51 90.75C17.63 94.9 22.75 99.04 27.72 103.07C11.9 153.86 19.85 199.52 54.77 239.64C55.37 239.56 55.97 239.47 56.57 239.39C56.12 234.66 55.75 229.91 55.2 225.19C52.59 202.89 49.86 180.61 47.31 158.31C44.66 135.14 41.91 111.97 39.76 88.75C39.14 82.08 36.69 76.94 32.3 72.26C30 69.81 28.04 67.06 25.94 64.47C84.17 -18.41 204.54 -22.3 266.76 58.11C259.68 58.11 253.26 57.9 246.86 58.19C243.24 58.36 240.67 57.31 237.95 54.86C212.47 31.87 182.73 19.15 148.18 19.6C112.79 20.06 82.38 33.2 56.95 57.82C54.98 59.72 53.04 61.65 51.23 63.41C51.23 63.94 51.12 64.29 51.25 64.41C58.9 72.2 58.28 82.42 59.2 92.09C62.02 121.66 64.64 151.25 67.28 180.83C68.08 189.75 68.68 198.68 70.24 207.62C72.64 162.27 75.05 116.93 77.46 71.31H88.25C90.51 117.32 92.76 163.27 95.01 209.22C95.3 209.22 95.6 209.22 95.89 209.22C96.66 200.97 97.5 192.72 98.19 184.45C100.91 152 103.59 119.54 106.28 87.09C106.65 82.61 106.88 78.12 107.44 73.67C107.56 72.7 108.79 71.13 109.55 71.1C115.39 70.88 121.23 70.98 127.49 70.98C126.63 78.51 125.77 85.64 125.02 92.78C122.31 118.6 119.69 144.42 116.95 170.23C114.75 190.96 112.46 211.67 110.08 232.38C109.96 233.44 108.57 235.19 107.73 235.21C100.26 235.43 92.78 235.34 84.98 235.34C84.34 227.15 83.72 219.26 83.1 211.37L82.87 211.39C82.23 219.2 81.58 227.01 80.89 235.42C76.06 235.42 71.48 235.56 66.91 235.38C63.41 235.24 60.79 236.44 58.3 238.9C53.18 243.95 47.77 248.72 42.53 253.54C3.05999 221.21 -13.41 131.17 12.51 90.75Z" fill="white"/>
<path d="M277.68 71.5C270.83 78.52 264.06 85.63 257.02 92.47C256.01 93.45 253.74 93.36 252.04 93.36C235.32 93.42 218.6 93.4 201.62 93.4V211.2H253.39C252.38 212.64 251.89 213.58 251.18 214.3C244.61 220.96 238.05 227.64 231.33 234.16C230.31 235.15 228.5 235.79 227.04 235.81C216.05 235.96 205.06 235.95 194.08 235.91C185 235.88 179.89 230.95 179.88 221.79C179.81 175.96 179.82 130.14 179.88 84.31C179.89 75.58 184.94 70.42 193.56 70.39C220.91 70.31 248.25 70.39 275.6 70.43C276.07 70.43 276.54 70.52 277.02 70.57C277.24 70.88 277.45 71.19 277.67 71.49L277.68 71.5Z" fill="white"/>
<path d="M138.22 60.66H107.34V44.41H191.04V60.44H159.05V259.74H138.23V60.66H138.22Z" fill="white"/>
<path d="M50.61 261.73C55.38 257.51 60.12 253.31 64.96 249.03C69.67 252.38 74.17 255.91 78.98 258.95C117.93 283.52 158.71 286.96 201.23 269.23C222.6 260.32 240 245.93 254.82 228.18C260.84 230.63 267.02 232.41 273.37 234.45C227.58 304.46 120.42 324.87 50.61 261.73Z" fill="white"/>
<path d="M285.78 212.98C280.05 208.79 274.65 204.85 269.83 201.32C272.06 192.08 274.16 183.35 276.26 174.62C277.31 167.12 277.15 167.14 284.31 167.22C288.65 167.26 292.99 167.22 297.88 167.22C296.03 183.23 293.21 198.4 285.78 212.97V212.98Z" fill="white"/>
<path d="M276.76 128.85C275.66 121.74 274.94 114.72 273.34 107.88C272.69 105.11 273.74 102.21 276 100.47C280.03 97.36 283.79 93.89 288.12 90.2C293.45 102.7 296.32 115.39 297.5 128.85H276.76Z" fill="white"/>
<path d="M276.76 128.85C276.76 128.85 279.96 158.05 276.46 173.19L296.68 176.33L297.87 167.23C297.87 167.23 299.76 144.58 297.49 128.85C295.22 113.12 276.75 128.85 276.75 128.85H276.76Z" fill="white"/>
<path d="M269.83 201.32C269.83 201.32 259.71 222.56 254.82 228.18C249.93 233.8 259.93 235.94 259.93 235.94L273.37 234.46L285.78 212.99V193.43L269.83 201.33V201.32Z" fill="white"/>
</svg>
