<svg width="36" height="35" viewBox="0 0 36 35" fill="none" xmlns="http://www.w3.org/2000/svg">
<circle cx="18" cy="17.5" r="17.5" fill="white"/>
<path d="M26.3501 13.2298C26.3632 13.4137 26.3633 13.5986 26.3633 13.7843C26.3633 19.4579 22.0285 26 14.1045 26V25.9974C11.7632 26.0006 9.47045 25.3322 7.5 24.0722C8.62801 24.2076 9.77175 24.1202 10.8658 23.8148C11.9599 23.5094 12.9828 22.9922 13.8761 22.2926C12.977 22.2756 12.1057 21.9791 11.384 21.4444C10.6623 20.9097 10.1264 20.1637 9.85113 19.3106C10.4966 19.4346 11.162 19.4095 11.7962 19.2373C10.8213 19.041 9.94446 18.5146 9.31452 17.7475C8.68457 16.9804 8.34027 16.0198 8.34 15.0286V14.9745C8.93921 15.3072 9.60995 15.4915 10.2956 15.5116C9.38341 14.9046 8.73762 13.974 8.48971 12.9093C8.24181 11.8445 8.41043 10.7257 8.96125 9.78043C10.0433 11.1068 11.3931 12.1915 12.9232 12.9642C14.4533 13.7369 16.1293 14.1803 17.8425 14.2656C17.6291 13.3456 17.7257 12.3811 18.1174 11.5213C18.5091 10.6614 19.1741 9.95406 20.0096 9.5085C20.8451 9.06294 21.8046 8.90399 22.7398 9.05621C23.6751 9.20844 24.5339 9.66336 25.1838 10.3507C26.149 10.161 27.0747 9.80831 27.9207 9.30785C27.5992 10.3023 26.926 11.1463 26.0264 11.683C26.8802 11.5822 27.714 11.3544 28.5 11.0072C27.9215 11.8694 27.1935 12.622 26.3501 13.2298Z" fill="#1D9BF0"/>
</svg>
